<svg width="15" height="16" viewBox="0 0 15 16" fill="none" xmlns="http://www.w3.org/2000/svg">
<path fill-rule="evenodd" clip-rule="evenodd" d="M0 5.64248C0 8.00282 3.71691 15.5452 7.24359 15.5452H7.24369C10.7705 15.5452 14.4997 8.33639 14.4997 5.37042C14.4997 3.49514 12.7553 0.460449 7.22278 0.460449C1.69031 0.460449 0 3.81276 0 5.64248ZM4.69116 6.17067C3.37003 4.74454 2.55009 3.29892 2.55009 3.29892C2.55009 3.29892 3.90103 2.62626 4.78359 2.44664C4.85878 2.43136 4.93547 2.41495 5.01403 2.39826C5.8575 2.21864 6.90675 1.99532 8.41978 2.53851C11.5678 3.66876 12.91 5.78282 12.91 5.78282C12.91 5.78282 10.8842 4.15148 8.65341 3.82392C7.36837 3.6352 4.97812 4.40067 4.97812 4.40067C4.97812 4.40067 5.80894 5.28004 6.48516 6.56761C6.59175 6.77057 6.69562 6.95639 6.79509 7.13432C7.32647 8.08467 7.73016 8.80664 7.73016 10.6903C7.73016 12.0645 6.69141 14.1068 6.69141 14.1068C6.69141 14.1068 7.27481 11.4459 6.80428 9.34195C6.46425 7.82104 6.20194 7.58704 5.58366 7.03542C5.34666 6.82401 5.05725 6.56592 4.69116 6.17067Z" fill="black"/>
</svg>
